<svg xmlns="http://www.w3.org/2000/svg" viewBox="0 0 83 83" width="83" height="83">
	<style>
		tspan { white-space:pre }
		.shp0 { fill: #f5c506 } 
	</style>
	<g id="bnner+header">
		<g id="logo ">
			<path id="Shape 8 copy 3" class="shp0" d="M-0.01 55L13.07 41.5L-0.01 28L11.09 28L24.17 41.5L11.09 55L-0.01 55ZM16.83 55L29.91 41.5L16.83 28L27.93 28L41.01 41.5L27.93 55L16.83 55ZM83.01 55L69.93 41.5L83.01 28L71.91 28L58.83 41.5L71.91 55L83.01 55ZM66.17 55L53.09 41.5L66.17 28L55.07 28L41.99 41.5L55.07 55L66.17 55ZM28 -0.01L41.5 13.07L55 -0.01L55 11.09L41.5 24.17L28 11.09L28 -0.01ZM28 16.83L41.5 29.91L55 16.83L55 27.93L41.5 41.01L28 27.93L28 16.83ZM28 83.01L41.5 69.93L55 83.01L55 71.91L41.5 58.83L28 71.91L28 83.01ZM28 66.17L41.5 53.09L55 66.17L55 55.07L41.5 41.99L28 55.07L28 66.17Z" />
		</g>
	</g>
</svg>